# xmcd
#
# Track frame offsets: 
#        182
#        12200
#        24122
#        36145
#        48155
#        59295
#        70982
#        86217
#        111547
#        130410
#
# Disc length: 1938 seconds
#
# Revision: 1
# Processed by: cddbd v1.5.2PL0 Copyright (c) Steve Scherf et al.
# Submitted via: ExactAudioCopy v0.99pb5
#
DISCID=8307900a
DTITLE=Tyrone Davis - Turn Back The Hands Of Time
DYEAR=0
DGENRE=Soul
TTITLE0=Turn Back The Hands Of Time
TTITLE1=Is It Something You Got
TTITLE2=I'll Be Right Here
TTITLE3=Let Me Back In
TTITLE4=Could I Forget You
TTITLE5=One-Way Ticket
TTITLE6=You Keep Me Holding On
TTITLE7=I Had It All The Time
TTITLE8=There It Is
TTITLE9=Without You In My Life
EXTD=YEAR: 0
EXTT0=
EXTT1=
EXTT2=
EXTT3=
EXTT4=
EXTT5=
EXTT6=
EXTT7=
EXTT8=
EXTT9=
PLAYORDER=
